<svg width="480" height="480" viewBox="0 0 480 480" fill="none" xmlns="http://www.w3.org/2000/svg">
<path fill-rule="evenodd" clip-rule="evenodd" d="M306.31 179.147L323.616 149.173L276.851 122.173L259.555 152.13C253.259 150.736 246.715 150 240 150C233.284 150 226.741 150.736 220.445 152.13L203.404 122.615L156.639 149.615L173.689 179.148C164.877 188.746 158.121 200.263 154.12 213H120V267H154.12C158.121 279.737 164.877 291.255 173.69 300.853L156.384 330.827L203.15 357.827L220.446 327.87C226.741 329.265 233.285 330 240 330C246.715 330 253.259 329.265 259.554 327.87L276.595 357.385L323.36 330.385L306.31 300.853C315.123 291.255 321.879 279.738 325.88 267H360V213H325.88C321.879 200.263 315.123 188.746 306.31 179.147ZM240 301C273.137 301 300 274.137 300 241C300 207.863 273.137 181 240 181C206.863 181 180 207.863 180 241C180 274.137 206.863 301 240 301Z" fill="#0088F6"/>
</svg>
